<?xml version="1.0" standalone="no"?>
<!DOCTYPE svg PUBLIC "-//W3C//DTD SVG 20010904//EN"
 "http://www.w3.org/TR/2001/REC-SVG-20010904/DTD/svg10.dtd">
<svg version="1.0" xmlns="http://www.w3.org/2000/svg"
 width="244.000000pt" height="244.000000pt" viewBox="0 0 244.000000 244.000000"
 preserveAspectRatio="xMidYMid meet">
<metadata>
Created by potrace 1.10, written by Peter Selinger 2001-2011
</metadata>
<g transform="translate(0.000000,244.000000) scale(0.100000,-0.100000)"
fill="#000000" stroke="none">
<path d="M100 1220 c0 -748 4 -1220 9 -1220 6 0 10 472 10 1220 1 800 -3 1220
-9 1220 -7 0 -10 -421 -10 -1220z"/>
<path d="M2330 1220 c0 -805 4 -1220 10 -1220 7 0 10 415 10 1220 0 795 -4
1220 -10 1220 -7 0 -10 -425 -10 -1220z"/>
<path d="M960 2280 c-47 -11 -107 -27 -135 -36 -71 -23 -278 -124 -355 -174
-75 -48 -210 -177 -210 -200 0 -9 -12 -30 -27 -47 -16 -17 -43 -60 -61 -95
l-32 -63 0 -499 c0 -471 1 -498 18 -491 17 7 194 65 199 65 6 0 44 -143 47
-184 3 -25 7 -50 10 -54 14 -22 19 -85 23 -284 3 -120 8 -218 12 -218 4 0 7
24 8 52 2 92 2 94 23 94 23 0 25 -7 7 -25 -10 -10 -8 -11 8 -6 11 4 16 3 10
-2 -16 -13 -13 -105 4 -111 10 -3 12 0 8 12 -4 9 -3 15 1 12 5 -3 7 40 6 94
-1 55 2 97 7 94 5 -3 6 3 2 12 -4 10 -2 15 4 11 5 -3 10 0 10 8 0 8 -4 12 -8
9 -4 -2 -10 0 -14 6 -3 5 1 10 9 10 9 0 16 5 16 11 0 5 -4 8 -9 5 -13 -8 -19
13 -16 57 2 20 -1 37 -6 37 -5 0 -8 20 -5 45 3 30 0 43 -7 38 -6 -4 -7 -1 -2
6 9 15 -16 132 -26 125 -4 -2 -4 9 1 26 5 19 5 28 -1 25 -8 -6 -13 8 -10 27 0
4 -6 22 -14 40 l-15 33 6 -50 c3 -27 7 -62 8 -77 1 -14 8 -33 14 -41 10 -12 8
-14 -10 -14 -25 0 -28 17 -30 142 l0 50 -13 -40 c-8 -24 -13 -32 -14 -20 -1
12 -6 26 -13 33 -7 7 -9 12 -4 12 4 0 1 7 -8 15 -17 17 -52 20 -61 5 -4 -6
-11 -7 -17 -4 -7 5 -8 2 -3 -6 6 -10 4 -12 -9 -7 -9 4 -31 0 -47 -8 -16 -9
-34 -13 -39 -10 -5 3 -12 0 -16 -6 -4 -7 -9 -8 -13 -1 -3 6 -4 225 -1 488 4
357 8 478 17 481 7 3 9 11 6 19 -3 8 0 14 7 14 6 0 8 4 5 10 -3 6 1 7 10 3 12
-4 13 -8 5 -13 -7 -4 -11 -12 -9 -18 2 -6 13 1 23 16 11 14 15 22 9 19 -6 -4
-16 0 -24 9 -10 13 -9 16 9 21 13 3 22 13 22 25 0 11 5 16 11 13 6 -4 13 2 16
14 3 12 9 21 13 21 4 0 7 10 6 23 -1 22 50 77 73 77 6 0 11 7 11 15 0 8 7 15
15 15 9 0 12 6 9 15 -5 11 -2 13 10 9 10 -4 16 -1 16 8 0 13 72 64 88 62 4 -1
13 6 20 15 8 9 11 11 8 4 -4 -6 -1 -15 5 -19 7 -4 9 -3 6 3 -9 15 23 40 61 48
19 4 30 11 25 18 -4 6 0 8 10 4 10 -4 16 -2 14 5 -1 6 3 12 10 15 8 3 11 -4 8
-19 -4 -20 -1 -19 27 12 33 36 96 70 129 70 11 0 32 8 46 18 15 9 24 12 20 5
-4 -6 -3 -14 3 -18 5 -3 10 -1 10 5 0 6 5 8 10 5 6 -3 10 -2 10 3 0 12 46 21
145 29 154 12 347 0 383 -23 12 -8 22 -12 22 -9 0 15 44 -20 69 -55 16 -22 31
-37 34 -34 3 3 18 -3 33 -13 16 -10 25 -12 21 -5 -12 18 26 15 71 -5 20 -9 41
-15 45 -14 5 1 11 -7 14 -18 3 -13 11 -17 26 -13 19 5 20 3 9 -10 -10 -13 -10
-18 -1 -24 7 -4 9 -3 6 3 -14 22 23 21 49 0 52 -43 65 -58 59 -67 -3 -5 -1
-11 4 -15 6 -3 8 6 5 22 -4 26 -3 27 9 7 6 -12 18 -19 25 -17 6 3 12 -2 12
-11 0 -8 9 -20 20 -26 11 -6 20 -16 20 -23 0 -7 -4 -6 -10 3 -6 9 -10 10 -10
3 0 -16 17 -26 25 -13 8 13 34 -11 28 -26 -2 -7 0 -15 6 -19 6 -3 12 -18 12
-33 1 -17 3 -21 6 -9 2 9 8 17 13 17 5 0 6 -7 3 -17 -5 -12 -3 -14 7 -8 9 5
11 4 6 -3 -4 -6 3 -21 14 -32 12 -12 19 -28 16 -36 -3 -8 -2 -13 3 -10 7 5 22
-15 25 -34 1 -3 11 -26 23 -50 40 -83 65 -152 60 -171 -3 -12 -1 -16 5 -13 7
5 9 -4 6 -24 -2 -17 -1 -33 3 -34 5 -2 10 -14 11 -28 2 -14 8 -28 13 -32 6 -5
6 -8 -1 -8 -8 0 -11 -22 -9 -67 6 -156 7 -652 0 -662 -3 -6 -1 -27 5 -47 7
-19 9 -38 6 -42 -4 -3 -9 4 -13 16 -3 12 -9 22 -13 22 -5 0 -6 9 -3 20 3 11 1
20 -4 20 -5 0 -10 17 -10 37 -1 38 -1 38 10 11 6 -16 14 -28 19 -28 12 0 9 12
-7 34 -8 10 -12 23 -8 29 3 5 0 7 -8 5 -20 -7 -17 -147 3 -162 16 -12 13 -40
-3 -30 -20 12 -7 -13 20 -39 26 -24 39 -67 20 -67 -13 0 -31 29 -24 40 3 5 2
10 -4 10 -5 0 -12 9 -16 19 -3 10 -15 21 -25 24 -11 3 -20 11 -20 17 0 9 5 9
18 -1 16 -13 16 -13 0 6 -9 11 -19 37 -23 57 -4 21 -10 36 -14 33 -4 -2 -7 4
-7 13 0 9 -2 37 -3 62 -3 39 -4 41 -11 20 l-8 -25 -1 26 c-1 15 -7 32 -15 38
-12 10 -16 8 -22 -11 -5 -13 -9 -27 -10 -33 -1 -5 -3 -12 -4 -15 -1 -3 -3 -21
-6 -40 -3 -27 -1 -32 7 -20 9 12 10 11 6 -8 -3 -12 -1 -20 4 -16 5 3 9 -4 9
-15 0 -13 -5 -19 -14 -15 -8 3 -17 1 -20 -4 -3 -5 2 -9 11 -8 9 0 18 -5 20
-11 3 -7 0 -13 -7 -13 -6 0 -8 6 -4 13 4 7 3 9 -2 4 -5 -5 -10 -13 -10 -18 -3
-22 -5 -23 -14 -9 -6 9 -10 10 -10 3 0 -20 19 -25 36 -9 24 25 40 19 18 -6
-16 -20 -17 -21 -1 -9 13 11 21 11 29 3 8 -8 4 -14 -17 -22 -15 -6 -25 -13
-21 -17 3 -3 1 -12 -5 -19 -6 -8 -7 -14 0 -18 6 -4 8 -13 5 -21 -4 -8 -11 -12
-17 -8 -6 3 -7 1 -3 -6 4 -6 11 -9 15 -7 4 3 7 -17 7 -44 -1 -28 1 -50 4 -50
3 0 5 -31 5 -68 l0 -68 -30 -2 c-31 -3 -47 -14 -51 -34 -1 -7 -3 -17 -4 -23
-1 -5 -2 -27 -1 -47 1 -27 6 -38 16 -38 12 0 15 13 15 55 l0 55 45 0 c29 0 45
4 45 13 -1 73 -23 304 -31 319 -9 17 -8 19 6 11 9 -6 29 -37 44 -69 27 -61 79
-150 113 -193 l19 -25 -2 92 c-1 51 -5 95 -10 98 -5 3 -9 11 -9 17 0 8 3 8 9
-1 5 -8 8 11 7 46 -1 34 -7 66 -15 75 -7 10 -9 17 -3 17 6 0 13 -6 15 -12 11
-29 7 852 -4 899 -39 161 -56 208 -111 313 -33 63 -64 117 -68 120 -4 3 -17
24 -28 46 -50 99 -350 300 -437 293 -26 -3 -42 6 -86 44 -81 71 -113 79 -334
83 -162 3 -202 1 -275 -16z m-254 -128 c-17 -16 -18 -16 -5 5 7 12 15 20 18
17 3 -2 -3 -12 -13 -22z m1431 -1469 c3 -15 5 -40 6 -55 1 -16 5 -28 8 -28 4
0 10 -15 13 -34 6 -32 45 -120 46 -103 0 5 5 5 10 2 8 -5 7 -11 -1 -21 -10
-12 -10 -15 2 -12 9 2 13 -4 11 -19 -2 -15 2 -23 12 -23 8 0 17 -4 20 -8 3 -5
-8 -9 -24 -9 -17 0 -30 5 -29 11 1 6 1 18 -1 26 -1 11 -4 10 -11 -5 -8 -18 -9
-18 -5 4 6 27 -38 121 -56 121 -9 0 -9 3 -1 11 8 8 9 19 2 37 -13 33 -24 149
-14 140 4 -4 10 -20 12 -35z m-1668 -150 c-8 -9 -16 -10 -22 -4 -13 13 0 31
19 24 11 -4 12 -8 3 -20z m-10 -25 c11 -10 13 -10 7 0 -4 6 -2 12 3 12 6 0 12
-10 12 -22 1 -13 2 -30 3 -38 1 -8 -3 -21 -9 -29 -7 -11 -7 -13 3 -7 14 8 14
8 17 -54 1 -25 -2 -51 -8 -58 -8 -10 -7 -12 4 -10 14 3 15 -14 6 -117 -3 -37
-31 -41 -34 -5 -9 88 -8 247 1 259 8 11 8 13 -1 7 -7 -4 -13 -2 -13 3 0 17 -2
24 -11 49 -9 24 0 29 20 10z m1791 -149 c0 -5 4 -8 9 -5 13 9 20 -31 8 -43 -8
-8 -6 -11 6 -11 14 0 16 -4 8 -19 -6 -10 -7 -21 -4 -25 3 -3 3 -6 0 -6 -4 0
-13 15 -20 33 -8 18 -22 40 -31 50 -16 15 -16 17 -1 17 9 0 13 5 10 10 -3 6
-1 10 4 10 6 0 11 -5 11 -11z"/>
<path d="M453 475 c0 -8 4 -12 9 -9 5 3 6 10 3 15 -9 13 -12 11 -12 -6z"/>
<path d="M469 408 c-1 -2 -2 -18 -4 -35 -2 -32 8 -43 20 -23 3 6 1 10 -5 10
-6 0 -8 10 -4 25 3 14 3 25 0 25 -3 0 -7 -1 -7 -2z"/>
<path d="M465 320 c-3 -6 1 -7 9 -4 18 7 21 14 7 14 -6 0 -13 -4 -16 -10z"/>
<path d="M479 280 c-19 -11 -18 -55 1 -55 8 0 14 13 15 33 1 17 1 32 1 32 -1
0 -8 -5 -17 -10z"/>
<path d="M728 2273 c7 -3 16 -2 19 1 4 3 -2 6 -13 5 -11 0 -14 -3 -6 -6z"/>
<path d="M324 2023 c3 -21 19 -20 22 2 1 8 -4 15 -11 15 -7 0 -12 -8 -11 -17z"/>
<path d="M2070 2020 c0 -5 5 -10 11 -10 5 0 7 5 4 10 -3 6 -8 10 -11 10 -2 0
-4 -4 -4 -10z"/>
<path d="M2028 1993 c7 -3 16 -2 19 1 4 3 -2 6 -13 5 -11 0 -14 -3 -6 -6z"/>
<path d="M2077 1959 c7 -7 15 -10 18 -7 3 3 -2 9 -12 12 -14 6 -15 5 -6 -5z"/>
<path d="M142 1930 c0 -19 2 -27 5 -17 2 9 2 25 0 35 -3 9 -5 1 -5 -18z"/>
<path d="M243 1943 c0 -9 4 -10 14 -2 7 6 13 12 13 14 0 1 -6 2 -13 2 -8 0
-14 -6 -14 -14z"/>
<path d="M2100 1936 c0 -2 7 -7 16 -10 8 -3 12 -2 9 4 -6 10 -25 14 -25 6z"/>
<path d="M310 1879 c0 -5 5 -7 10 -4 6 3 10 8 10 11 0 2 -4 4 -10 4 -5 0 -10
-5 -10 -11z"/>
<path d="M2145 1869 c-4 -6 -5 -12 -2 -15 2 -3 7 2 10 11 7 17 1 20 -8 4z"/>
<path d="M170 1855 c-11 -13 -10 -14 4 -9 9 3 16 10 16 15 0 13 -6 11 -20 -6z"/>
<path d="M1934 1856 c-3 -8 -13 -12 -23 -9 -9 2 -23 -3 -30 -11 -10 -12 -10
-16 -2 -16 8 0 10 -8 6 -20 -4 -13 8 -41 39 -88 26 -38 46 -74 46 -80 0 -6 11
-19 25 -30 14 -11 25 -24 25 -29 0 -18 46 -97 58 -101 17 -5 15 14 -4 32 -11
11 -12 16 -3 16 8 0 5 6 -5 13 -10 8 -18 26 -18 40 0 18 -6 27 -17 27 -12 0
-13 2 -3 9 18 11 18 12 3 39 -7 14 -18 21 -26 18 -8 -3 -17 0 -21 6 -4 6 -3 8
3 5 24 -15 22 26 -1 44 -14 11 -28 28 -31 39 -4 11 -11 18 -16 14 -5 -3 -9 -2
-8 3 4 17 -14 43 -29 43 -12 0 -13 3 -4 12 16 16 42 -9 73 -68 19 -35 29 -44
49 -43 16 0 19 3 10 6 -15 6 -46 44 -43 53 0 3 -3 13 -8 22 -7 12 -4 20 8 28
17 11 17 11 1 6 -10 -3 -24 -9 -32 -12 -11 -4 -14 1 -12 20 4 28 -2 34 -10 12z
m-24 -60 c0 -3 -4 -8 -10 -11 -5 -3 -10 -1 -10 4 0 6 5 11 10 11 6 0 10 -2 10
-4z m25 -46 l20 -25 -22 19 c-13 11 -23 24 -23 29 0 6 1 8 3 6 1 -2 11 -15 22
-29z m50 -46 c20 -15 20 -16 -4 -12 -14 2 -26 9 -29 16 -5 16 9 15 33 -4z"/>
<path d="M1990 1811 c0 -6 4 -13 10 -16 6 -3 7 1 4 9 -7 18 -14 21 -14 7z"/>
<path d="M1851 1783 c4 -24 -2 -43 -13 -37 -7 4 -8 3 -4 -4 4 -6 13 -9 21 -5
11 4 14 0 9 -13 -4 -11 -4 -16 1 -12 7 6 25 -18 70 -91 6 -11 4 -13 -8 -8 -11
4 -14 2 -11 -7 3 -8 14 -12 27 -9 16 3 18 2 9 -5 -11 -7 -9 -10 6 -14 14 -4
19 -12 15 -29 -3 -18 7 -36 40 -71 25 -26 48 -44 53 -40 4 4 4 1 0 -5 -10 -18
-12 -17 -49 21 -57 60 -76 84 -69 92 4 4 2 4 -4 1 -21 -12 -7 -43 44 -97 57
-61 63 -81 30 -104 -12 -9 -18 -16 -13 -16 6 0 3 -4 -5 -10 -10 -6 -13 -23
-11 -62 2 -29 4 -61 4 -70 1 -11 5 -14 12 -8 7 6 11 2 12 -11 1 -11 -3 -17 -9
-13 -6 4 -6 -1 1 -14 8 -15 8 -22 -2 -25 -6 -3 -3 -6 8 -7 20 -1 20 -1 0 -10
-14 -6 -16 -9 -4 -9 11 -1 15 -10 13 -31 -1 -16 2 -27 7 -24 5 3 7 -8 5 -24
-3 -32 18 -59 46 -59 9 0 27 17 40 38 12 20 27 34 32 31 5 -3 6 0 1 7 -4 7 3
23 16 38 13 15 17 23 9 18 -8 -4 -3 5 11 21 15 16 24 35 21 43 -3 9 0 11 8 6
9 -5 11 -4 6 4 -4 6 -9 32 -10 57 -2 26 -9 50 -17 55 -8 5 -10 9 -6 9 16 0
-62 66 -80 67 -40 3 -58 11 -61 26 -4 19 21 14 49 -10 14 -12 17 -12 23 2 3 9
2 14 -3 11 -5 -3 -12 1 -15 10 -5 12 -2 15 11 10 14 -6 15 -4 7 4 -9 9 -17 9
-33 1 -16 -9 -26 -9 -39 -1 -16 11 -16 11 1 6 11 -3 17 0 17 9 0 8 4 15 10 15
5 0 -2 12 -15 26 -14 15 -25 32 -25 39 0 7 -7 18 -14 25 -8 6 -25 32 -36 56
-12 24 -26 44 -31 44 -6 0 -8 4 -5 9 3 5 -3 20 -14 34 -11 14 -20 29 -20 34 0
4 -14 21 -30 37 -16 16 -27 32 -25 37 3 4 1 11 -5 14 -6 4 -10 3 -9 -2z m256
-464 c91 -51 107 -117 52 -217 -49 -90 -87 -138 -94 -119 -4 8 1 29 9 46 22
42 19 61 -5 31 l-20 -25 5 35 c2 19 8 47 11 63 6 22 2 31 -19 48 -29 22 -32
45 -12 72 14 18 36 23 36 8 0 -5 7 -11 15 -15 25 -9 17 20 -10 34 -22 12 -27
11 -45 -5 -19 -18 -20 -17 -20 3 0 16 41 62 56 62 2 0 20 -10 41 -21z m-57
-180 c0 -11 -4 -17 -10 -14 -5 3 -10 13 -10 21 0 8 5 14 10 14 6 0 10 -9 10
-21z"/>
<path d="M2115 1220 c5 -34 -2 -38 -20 -14 -10 15 -12 14 -10 -7 1 -16 7 -23
18 -21 11 2 14 -3 10 -18 -3 -11 -9 -17 -14 -15 -4 3 -7 -3 -6 -14 1 -19 2
-19 18 -3 9 9 14 21 11 26 -3 5 2 7 11 3 9 -3 19 -2 22 2 2 5 -3 11 -14 14
-13 3 -17 13 -16 36 1 18 -2 34 -6 37 -4 2 -6 -9 -4 -26z"/>
<path d="M2143 1208 c1 -15 6 -23 11 -18 4 4 4 16 -2 26 -9 16 -10 14 -9 -8z"/>
<path d="M2111 1106 c-9 -10 -8 -15 2 -19 8 -3 13 3 13 14 0 23 0 23 -15 5z"/>
<path d="M869 1764 c-6 -8 -9 -30 -6 -51 8 -55 11 -64 31 -103 l18 -35 -21 23
c-12 12 -26 22 -32 22 -6 0 -7 9 -4 21 5 14 3 19 -3 15 -12 -7 -34 52 -25 68
3 6 3 8 -2 4 -4 -4 -15 -3 -25 2 -18 10 -65 -15 -55 -30 3 -4 -4 -10 -15 -13
-15 -4 -20 -14 -20 -39 0 -18 -7 -46 -15 -61 -8 -16 -16 -39 -18 -52 -1 -13
-7 -28 -12 -32 -4 -4 -5 -2 -1 5 10 17 1 15 -14 -4 -8 -8 -9 -14 -4 -13 20 4
22 -3 10 -49 -8 -29 -10 -57 -5 -70 5 -14 5 -21 0 -17 -5 3 -13 0 -17 -6 -4
-7 -3 -9 3 -6 12 8 49 -30 40 -40 -4 -3 -7 0 -7 7 0 11 -3 11 -12 2 -9 -9 -15
-9 -27 1 -14 10 -15 10 -1 -8 18 -23 19 -42 3 -70 -11 -18 -12 -17 -11 10 1
47 -1 57 -12 50 -13 -8 -13 6 0 39 6 18 6 26 -1 26 -6 0 -9 6 -6 14 3 8 -4 18
-16 24 -28 13 -54 12 -54 -2 1 -44 -4 -58 -18 -52 -14 5 -14 2 0 -24 22 -42
18 -59 -6 -30 -17 21 -19 22 -10 3 16 -31 14 -46 -5 -39 -14 5 -15 4 -5 -8 7
-8 9 -21 5 -27 -5 -8 -3 -9 6 -4 9 5 11 2 7 -11 -3 -11 -8 -45 -12 -77 -5 -54
-4 -59 24 -85 34 -31 54 -112 28 -112 -23 0 -39 -24 -24 -39 8 -8 9 -14 1 -19
-6 -4 -13 -22 -16 -39 -3 -24 -1 -30 7 -23 9 8 16 2 25 -20 7 -16 17 -27 23
-23 6 3 7 1 3 -6 -4 -6 3 -25 15 -43 13 -17 16 -28 8 -23 -9 5 -8 1 3 -12 10
-11 18 -25 18 -31 0 -6 10 -20 21 -31 13 -12 19 -26 16 -35 -4 -10 -1 -16 8
-16 8 0 12 -8 10 -19 -3 -15 1 -18 12 -14 10 4 14 2 10 -4 -10 -16 42 -85 60
-79 13 5 14 4 3 -9 -11 -13 -9 -15 12 -15 13 0 30 -6 37 -13 11 -10 12 -9 6 2
-5 9 0 8 18 -4 14 -9 31 -15 39 -14 29 4 40 -2 34 -16 -3 -8 -1 -15 4 -15 6 0
9 -3 8 -7 -2 -10 13 -75 20 -88 3 -5 7 -24 9 -43 5 -46 -13 -32 -20 15 -3 21
-11 52 -18 68 -14 35 -16 40 -18 59 0 7 -12 16 -26 19 -24 4 -25 3 -10 -13 9
-9 19 -37 24 -61 5 -24 10 -37 11 -29 1 8 5 4 9 -10 5 -17 3 -29 -8 -36 -19
-15 -7 -46 15 -37 14 5 16 2 12 -14 -3 -11 -1 -27 3 -36 6 -10 5 -18 -1 -22
-8 -5 -8 -11 0 -20 6 -8 9 -28 6 -46 -3 -23 -2 -29 7 -20 6 6 12 24 13 41 2
22 -2 30 -14 31 -11 0 -12 2 -4 6 6 2 12 18 12 34 0 16 5 29 10 29 9 0 11 -13
14 -102 1 -30 10 -37 19 -15 8 21 -5 147 -14 141 -5 -3 -6 2 -3 10 3 8 1 23
-5 34 -7 13 -7 23 2 32 10 10 8 12 -8 6 -16 -6 -17 -5 -8 5 8 8 9 18 2 31 -5
10 -7 18 -3 18 3 0 0 7 -7 17 -13 15 -10 16 30 9 24 -4 49 -10 55 -13 5 -4 24
-8 41 -9 16 -2 80 -9 141 -15 141 -15 207 -9 239 21 14 13 25 20 25 15 0 -4
10 0 23 11 22 19 22 19 4 -2 -9 -11 -14 -24 -10 -27 3 -4 -1 -7 -9 -7 -9 0
-15 -8 -14 -21 0 -12 -8 -27 -19 -33 -11 -6 -23 -16 -27 -22 -4 -6 -21 -17
-38 -24 -16 -7 -30 -17 -30 -22 0 -5 -10 -13 -22 -18 -13 -5 -17 -9 -9 -9 11
-1 10 -5 -4 -15 -11 -8 -23 -12 -27 -10 -5 3 -8 0 -8 -6 0 -17 -30 -45 -30
-28 -1 7 -6 3 -13 -10 -7 -12 -17 -19 -22 -15 -4 4 -5 3 -1 -4 3 -6 2 -14 -4
-18 -13 -8 -13 -95 0 -95 5 0 14 19 20 43 23 87 21 83 36 62 14 -18 14 -18 14
0 0 10 26 44 58 76 56 54 59 56 71 37 11 -17 9 -22 -8 -35 -46 -31 -64 -104
-39 -158 13 -28 32 -35 24 -7 -6 18 41 102 56 102 11 0 10 -64 -2 -95 -8 -20
-7 -26 2 -23 7 3 18 22 24 43 l10 39 12 -45 11 -44 -4 50 c-2 30 -19 84 -39
129 -20 43 -33 83 -29 89 4 6 10 5 17 -5 7 -9 25 -15 45 -14 31 1 37 7 65 57
46 83 53 89 101 89 l42 0 32 70 c17 39 31 74 31 79 0 6 4 12 8 15 13 8 14
-142 1 -267 -9 -100 -30 -220 -45 -269 -3 -10 -1 -18 3 -18 24 0 69 302 76
503 2 57 8 102 15 109 9 9 12 8 12 -7 0 -30 31 -147 48 -180 9 -16 23 -57 32
-90 l16 -60 -42 -138 c-22 -76 -36 -136 -30 -134 6 2 24 46 39 98 16 52 31
101 34 109 6 17 13 -12 33 -133 7 -42 17 -77 22 -77 6 0 7 17 3 40 -6 33 -4
39 8 35 8 -4 13 -17 11 -33 -1 -14 -1 -29 2 -34 9 -14 34 4 33 26 0 20 -1 20
-9 1 -9 -20 -9 -20 -10 0 -2 11 -2 24 -1 29 1 4 -2 13 -7 20 -5 6 -9 34 -8 63
1 28 -2 49 -6 46 -5 -2 -9 3 -9 11 -1 9 -2 22 -3 29 -1 6 2 18 7 25 6 7 6 12
-1 12 -10 0 -27 47 -23 64 1 5 -4 13 -11 17 -10 7 -10 9 0 9 10 0 10 4 0 23
-7 12 -13 31 -14 42 -2 11 -4 39 -7 63 -2 23 -1 45 4 48 4 2 -1 25 -11 49 -10
24 -15 47 -11 49 10 6 8 37 -3 54 -4 7 -5 16 -2 19 3 3 1 14 -4 24 -6 10 -6
20 -2 23 5 3 8 15 6 28 -1 13 -3 29 -3 36 -1 7 -5 11 -10 7 -6 -3 -8 4 -4 17
6 25 6 47 -1 95 -6 47 11 31 19 -17 4 -22 11 -43 16 -46 6 -4 6 -10 0 -18 -8
-9 -8 -37 0 -92 5 -43 12 -101 15 -129 2 -27 5 -56 6 -62 1 -7 8 -13 15 -13 8
0 11 5 8 10 -9 14 14 42 28 33 6 -3 7 -1 3 5 -3 6 -15 9 -26 7 -17 -3 -19 -1
-10 16 7 12 7 25 1 37 -5 9 -7 30 -4 46 4 18 2 27 -4 23 -6 -4 -8 3 -6 17 3
13 0 27 -6 30 -15 9 -14 63 1 72 6 4 8 3 5 -2 -3 -6 -2 -16 4 -24 6 -11 9 -8
9 12 0 15 -4 30 -10 33 -5 3 -10 13 -10 21 0 8 5 14 10 14 6 0 10 -9 10 -20 0
-11 4 -20 9 -20 18 0 17 25 -2 57 -10 18 -16 40 -13 49 4 10 2 13 -6 8 -7 -5
-9 -2 -6 7 7 18 -17 55 -26 40 -4 -5 2 -33 13 -60 24 -63 11 -67 -19 -7 -18
38 -19 49 -9 68 11 20 10 21 -3 11 -8 -7 -18 -10 -21 -6 -7 6 -11 -26 -8 -59
2 -20 -18 -25 -21 -5 0 6 -2 21 -3 32 -1 11 -3 24 -4 29 0 5 -7 3 -15 -3 -8
-7 -12 -22 -10 -34 3 -12 6 -27 8 -34 1 -7 5 -16 9 -19 12 -12 8 -26 -5 -18
-7 4 -5 -2 4 -13 11 -12 19 -39 20 -70 2 -28 6 -49 11 -46 4 2 7 0 7 -6 0 -5
-4 -12 -9 -15 -5 -4 -8 -17 -6 -31 1 -14 -2 -25 -6 -25 -5 0 -10 16 -10 35 -2
44 -2 47 -13 63 -4 8 -2 20 6 29 9 12 9 15 1 9 -16 -9 -17 6 -2 21 8 8 7 13
-2 18 -8 6 -10 4 -4 -5 5 -8 4 -11 -2 -7 -14 9 -22 77 -9 77 5 0 2 6 -8 13 -9
7 -17 17 -16 22 2 6 1 12 0 15 -1 3 -4 19 -6 35 -3 17 -16 68 -29 114 -14 46
-22 87 -19 92 7 12 -18 49 -33 49 -7 0 -13 4 -13 10 0 5 8 7 18 4 9 -3 5 2
-10 11 -27 15 -54 52 -50 67 1 4 -5 5 -13 2 -8 -4 -15 -2 -15 3 0 5 -9 9 -19
9 -11 0 -17 -4 -15 -8 3 -4 0 -8 -5 -8 -6 0 -12 10 -12 23 -1 15 -3 17 -6 5
-2 -9 4 -29 13 -45 16 -25 14 -25 -22 8 -30 29 -43 35 -59 29 -11 -5 -14 -9
-7 -9 6 -1 12 -7 12 -14 0 -7 18 -31 40 -52 22 -21 40 -35 40 -29 0 6 -16 25
-35 44 -19 19 -35 38 -35 44 0 6 18 -7 39 -28 30 -29 39 -46 39 -71 0 -55 -11
-58 -53 -15 -46 47 -44 63 2 20 48 -45 53 -36 6 13 -22 23 -46 51 -52 62 -9
15 -11 15 -7 3 4 -12 0 -18 -12 -19 -10 0 -12 -3 -4 -6 16 -6 15 -33 -2 -33
-18 0 -27 35 -12 51 8 10 7 10 -6 0 -10 -7 -15 -17 -12 -22 3 -5 -1 -19 -7
-31 -11 -20 -10 -21 2 -11 9 7 20 8 29 3 8 -5 18 -6 24 -3 10 7 -2 -15 -18
-33 -8 -8 -14 -7 -24 5 -7 9 -11 11 -8 4 4 -6 0 -14 -6 -17 -10 -5 -10 -7 0
-12 6 -3 12 -11 12 -17 0 -7 9 -18 20 -25 11 -7 20 -17 20 -22 0 -19 -15 -9
-40 25 -14 19 -31 35 -37 35 -7 0 -13 6 -13 13 0 8 -3 7 -10 -3 -11 -18 -15
-14 -24 24 -7 27 -6 28 10 15 12 -9 15 -10 10 -1 -9 16 14 40 34 35 12 -4 12
-3 1 5 -10 7 -11 14 -2 31 10 18 9 20 -6 15 -17 -5 -17 -5 -2 8 15 12 11 14
-30 16 -32 1 -42 -1 -31 -8 24 -16 -41 -12 -69 4 -14 8 -30 12 -37 9 -7 -2
-32 1 -55 8 -24 7 -57 13 -74 13 -22 1 -30 6 -29 18 1 11 -4 14 -14 11 -10 -4
-13 -2 -8 5 4 6 -11 39 -33 72 -22 33 -35 60 -28 60 7 0 4 5 -5 11 -10 5 -18
19 -18 30 0 13 -4 18 -12 13 -7 -5 -9 -2 -5 9 3 8 0 21 -8 27 -8 6 -11 18 -9
25 3 7 -4 19 -17 25 -15 9 -18 14 -10 20 9 5 6 9 -8 13 -11 3 -25 -1 -32 -9z
m89 -159 c30 -60 60 -117 66 -125 7 -8 18 -30 26 -47 12 -33 13 -33 81 -33 69
0 80 -5 57 -28 -25 -25 4 -24 30 1 38 36 46 34 22 -5 -11 -18 -20 -43 -20 -55
0 -37 28 -27 50 18 14 27 26 39 36 35 8 -3 25 0 39 6 14 6 28 9 31 6 9 -10
-20 -48 -37 -48 -14 0 -15 -7 -8 -45 18 -96 79 -172 129 -160 14 3 43 8 66 11
60 9 89 56 88 143 0 36 -4 77 -8 91 -7 23 -6 23 21 -7 16 -18 41 -67 55 -110
28 -80 128 -480 128 -509 0 -48 -142 -186 -331 -322 -99 -72 -97 -71 -314 -47
-229 26 -360 59 -407 103 -32 30 -91 128 -137 227 -18 38 -43 84 -57 103 -20
26 -23 36 -14 47 14 17 -5 59 -22 49 -7 -4 -8 -2 -4 5 6 9 11 9 22 0 8 -6 17
-9 21 -6 3 4 12 2 20 -5 23 -19 23 -4 2 51 -18 49 -18 55 -4 77 21 33 60 56
86 52 33 -5 36 -28 4 -28 -26 0 -27 -2 -20 -37 14 -79 75 -153 124 -153 11 0
21 -6 23 -12 3 -8 15 -2 32 17 25 27 27 36 23 95 -4 65 -21 113 -56 159 -20
27 -101 41 -124 22 -19 -15 -29 -3 -16 20 7 15 19 18 54 15 25 -2 45 1 45 5 0
5 -4 9 -10 9 -5 0 -10 7 -10 15 0 18 -2 19 -45 1 -33 -14 -35 -14 -35 3 0 29
28 47 51 33 21 -14 39 -16 39 -4 0 12 -56 33 -74 26 -32 -12 -15 16 20 32 34
16 35 18 18 31 -10 7 -24 13 -31 13 -9 0 -12 8 -9 23 3 12 7 40 10 62 3 22 8
53 11 68 6 30 57 164 79 205 13 24 13 24 30 -19 25 -62 253 -429 267 -429 3 0
-15 43 -42 95 -26 52 -56 121 -67 153 -11 31 -34 95 -51 142 -30 83 -44 157
-19 100 6 -14 36 -74 66 -135z m-231 53 c-3 -8 -6 -5 -6 6 -1 11 2 17 5 13 3
-3 4 -12 1 -19z m193 -108 c0 -5 -2 -10 -4 -10 -3 0 -8 5 -11 10 -3 6 -1 10 4
10 6 0 11 -4 11 -10z m-340 -199 c0 -39 -11 -57 -29 -47 -11 7 8 86 20 86 5 0
9 -18 9 -39z m700 24 c-7 -9 -15 -13 -17 -11 -7 7 7 26 19 26 6 0 6 -6 -2 -15z
m-675 -179 c15 -74 15 -79 -2 -92 -10 -7 -22 -14 -27 -14 -5 0 -18 -7 -28 -17
-10 -9 -20 -14 -21 -12 -2 2 0 49 4 104 6 77 12 102 25 112 25 18 30 9 49 -81z
m947 51 c19 -16 24 -27 17 -38 -5 -8 -9 -9 -9 -3 0 7 -17 28 -37 49 -40 39
-18 33 29 -8z m156 21 c-1 -7 3 -22 9 -33 13 -25 28 -93 18 -83 -8 7 -44 106
-45 121 0 4 5 7 10 7 6 0 10 -6 8 -12z m-183 -38 c16 -16 26 -32 24 -34 -6 -6
-19 3 -48 37 -33 37 -12 35 24 -3z m-108 -12 c27 -25 32 -49 5 -25 -10 10 -22
14 -26 10 -4 -4 -4 0 0 10 5 13 2 16 -12 10 -12 -4 -15 -3 -10 5 10 17 16 15
43 -10z m67 16 c9 -3 16 -12 16 -20 0 -20 -13 -17 -28 6 -13 22 -12 23 12 14z
m20 -55 c-4 -8 1 -9 16 -4 15 5 20 4 16 -4 -4 -6 -18 -10 -31 -9 -18 2 -21 5
-13 15 13 16 22 17 12 2z m-59 -19 c3 -5 1 -10 -4 -10 -6 0 -11 5 -11 10 0 6
2 10 4 10 3 0 8 -4 11 -10z m305 -36 c0 -8 -4 -12 -10 -9 -5 3 -10 10 -10 16
0 5 5 9 10 9 6 0 10 -7 10 -16z m-1070 -17 c0 -1 -11 -2 -24 -2 -14 0 -22 5
-19 12 4 9 10 10 24 2 10 -5 19 -11 19 -12z m102 -18 c25 -23 27 -28 10 -19
-36 18 -35 7 3 -30 40 -39 41 -43 19 -65 -12 -11 -13 -19 -5 -29 6 -7 8 -16 4
-19 -3 -4 -13 2 -21 14 -12 18 -12 22 7 38 18 16 19 20 7 30 -10 8 -16 9 -21
1 -3 -6 -11 -8 -16 -5 -5 4 -9 1 -9 -4 0 -6 -5 -11 -11 -11 -5 0 -8 4 -4 9 3
5 0 13 -7 17 -7 4 -10 4 -6 -1 4 -4 3 -14 -3 -21 -9 -11 -7 -15 7 -21 22 -8
54 -41 54 -56 0 -6 -15 3 -32 20 -18 17 -41 29 -51 28 -17 -3 -17 -2 -3 20 11
17 13 26 4 31 -6 4 -8 3 -4 -4 8 -13 -10 -26 -24 -17 -7 4 0 17 16 32 21 19
29 22 35 11 7 -10 9 -10 9 2 0 10 6 8 19 -9 11 -14 21 -20 25 -13 7 12 -68 75
-78 65 -3 -3 -6 3 -6 15 0 33 42 28 82 -9z m978 1 c0 -5 -2 -10 -4 -10 -3 0
-8 5 -11 10 -3 6 -1 10 4 10 6 0 11 -4 11 -10z m-1190 -48 c0 -5 -7 -9 -15 -9
-8 0 -12 4 -9 9 3 4 9 8 15 8 5 0 9 -4 9 -8z m1203 -12 c3 -11 1 -20 -4 -20
-5 0 -9 9 -9 20 0 11 2 20 4 20 2 0 6 -9 9 -20z m-1026 -95 c8 -9 13 -19 9
-22 -7 -7 -36 16 -36 28 0 13 10 11 27 -6z m83 -24 c0 -15 -31 -42 -41 -36
-19 12 -13 19 39 44 1 0 2 -3 2 -8z m1048 -190 c-1 -31 9 -54 21 -47 3 3 7 -4
7 -14 0 -19 -1 -18 -19 0 -22 25 -31 26 -19 3 6 -10 13 -38 17 -63 3 -25 9
-53 11 -62 3 -10 1 -18 -4 -18 -13 0 -36 95 -28 115 3 8 2 15 -2 15 -12 0 -14
58 -3 65 6 3 8 12 4 20 -3 8 0 15 5 15 6 0 10 -13 10 -29z m-46 -51 c2 -14 7
-30 11 -37 5 -8 -1 -8 -19 2 -24 12 -29 12 -40 -3 -7 -9 -10 -20 -8 -24 3 -4
-2 -5 -10 -2 -12 5 -8 14 19 42 19 21 35 41 35 46 0 18 9 0 12 -24z m-85 -112
c-13 -18 -37 -61 -52 -95 -16 -35 -33 -63 -37 -63 -11 0 -11 2 13 57 29 68 72
133 87 133 8 0 5 -11 -11 -32z m-75 -37 c-8 -4 -14 -12 -14 -17 -2 -21 -29
-74 -38 -74 -6 0 -19 -9 -30 -20 -22 -22 -29 -4 -7 20 6 8 1 6 -12 -5 -13 -11
-39 -50 -57 -87 -19 -38 -39 -68 -44 -68 -6 0 8 36 30 80 22 44 45 80 50 80 6
0 9 6 8 13 -2 7 8 12 25 12 15 -1 27 5 27 12 0 7 5 13 11 13 6 0 9 6 7 12 -3
7 5 18 16 24 24 14 48 18 28 5z m235 -27 c3 -8 1 -20 -4 -25 -7 -7 -12 -2 -15
15 -6 28 9 36 19 10z m13 -76 c0 -19 -2 -20 -10 -8 -13 19 -13 30 0 30 6 0 10
-10 10 -22z m25 -115 c11 -46 11 -53 -2 -53 -8 0 -13 8 -12 18 1 9 1 20 0 25
0 4 -1 9 -2 12 0 2 -4 19 -9 36 -5 18 -6 37 -2 43 4 7 8 3 10 -9 2 -11 10 -44
17 -72z m-1035 -68 c0 -2 -7 -8 -15 -15 -12 -10 -15 -10 -15 2 0 8 7 15 15 15
8 0 15 -1 15 -2z m1054 -37 c3 -13 8 -43 11 -67 6 -56 -11 -43 -19 14 -4 22
-9 48 -12 58 -3 9 -1 17 5 17 6 0 13 -10 15 -22z m-539 -27 c3 -5 2 -12 -3
-15 -5 -3 -9 1 -9 9 0 17 3 19 12 6z m-21 -37 c4 -10 1 -14 -6 -12 -15 5 -23
28 -10 28 5 0 13 -7 16 -16z m-24 -43 c0 -6 -4 -13 -10 -16 -5 -3 -10 1 -10 9
0 9 5 16 10 16 6 0 10 -4 10 -9z"/>
<path d="M769 1628 c-5 -9 -4 -56 1 -52 5 6 8 54 3 54 -2 0 -4 -1 -4 -2z"/>
<path d="M790 1560 c0 -11 2 -20 4 -20 2 0 6 9 9 20 3 11 1 20 -4 20 -5 0 -9
-9 -9 -20z"/>
<path d="M743 1560 c2 -8 0 -23 -5 -33 -6 -12 -6 -23 2 -32 7 -8 7 -15 1 -19
-5 -3 -11 -3 -14 1 -2 5 -2 2 0 -6 2 -7 -2 -21 -9 -30 -11 -14 -11 -14 3 -3
14 10 18 10 23 -4 9 -23 7 -31 -3 -15 -6 9 -11 10 -15 2 -4 -6 -1 -11 6 -11
11 0 11 -2 0 -9 -10 -6 -10 -11 3 -21 15 -12 16 -11 13 5 -1 10 3 20 11 23 9
3 11 0 6 -7 -5 -9 -1 -9 14 1 13 8 17 16 11 22 -12 12 -13 29 -2 23 4 -3 8 7
9 21 l1 27 -13 -25 c-8 -14 -11 -34 -8 -45 5 -17 4 -18 -10 -7 -9 8 -13 21
-10 29 4 11 2 14 -5 9 -7 -4 -12 -3 -12 3 0 6 9 15 20 21 11 6 20 16 19 23 0
9 -2 9 -6 0 -9 -23 -20 -13 -18 17 1 16 -2 35 -7 42 -7 10 -8 10 -5 -2z"/>
<path d="M840 1500 c-9 -6 -10 -10 -3 -10 6 0 15 5 18 10 8 12 4 12 -15 0z"/>
<path d="M901 1414 c0 -11 3 -14 6 -6 3 7 2 16 -1 19 -3 4 -6 -2 -5 -13z"/>
<path d="M1106 1364 c-9 -23 -8 -24 12 -23 9 0 12 3 5 5 -7 3 -9 12 -6 20 3 8
3 14 0 14 -3 0 -8 -7 -11 -16z"/>
<path d="M963 1346 c1 -11 9 -21 17 -23 10 -3 11 -2 4 4 -6 4 -14 15 -17 23
-5 11 -6 9 -4 -4z"/>
<path d="M1065 1340 c3 -5 8 -10 11 -10 2 0 4 5 4 10 0 6 -5 10 -11 10 -5 0
-7 -4 -4 -10z"/>
<path d="M1168 1313 c7 -3 16 -2 19 1 4 3 -2 6 -13 5 -11 0 -14 -3 -6 -6z"/>
<path d="M1012 1256 c7 -8 15 -12 17 -11 5 6 -10 25 -20 25 -5 0 -4 -6 3 -14z"/>
<path d="M1618 1163 c7 -3 16 -2 19 1 4 3 -2 6 -13 5 -11 0 -14 -3 -6 -6z"/>
<path d="M816 1138 c3 -4 11 -5 19 -1 21 7 19 12 -4 10 -11 0 -18 -5 -15 -9z"/>
<path d="M853 1123 c-10 -3 -9 -8 2 -19 8 -8 12 -22 9 -32 -5 -14 -4 -14 4 -3
7 10 7 21 1 32 -6 12 -5 19 4 22 6 3 8 5 2 5 -5 0 -16 -2 -22 -5z"/>
<path d="M650 896 c0 -2 7 -7 16 -10 8 -3 12 -2 9 4 -6 10 -25 14 -25 6z"/>
<path d="M1076 851 c-4 -5 -2 -12 3 -15 5 -4 12 -2 15 3 4 5 2 12 -3 15 -5 4
-12 2 -15 -3z"/>
<path d="M584 828 c-4 -7 -4 -10 1 -6 4 4 14 0 22 -10 13 -15 13 -15 3 6 -12
25 -16 27 -26 10z"/>
<path d="M1409 786 c-171 -71 -316 -147 -312 -162 4 -15 140 -57 155 -48 17
11 -4 24 -38 24 -41 0 -54 22 -29 50 24 27 259 140 291 140 16 0 9 -23 -18
-63 -11 -15 -18 -33 -16 -39 3 -9 55 66 85 124 10 20 -24 12 -118 -26z"/>
<path d="M1551 814 c0 -11 3 -14 6 -6 3 7 2 16 -1 19 -3 4 -6 -2 -5 -13z"/>
<path d="M1764 780 c0 -13 4 -16 10 -10 7 7 7 13 0 20 -6 6 -10 3 -10 -10z"/>
<path d="M1071 774 c0 -11 3 -14 6 -6 3 7 2 16 -1 19 -3 4 -6 -2 -5 -13z"/>
<path d="M1562 778 c2 -6 10 -13 16 -14 7 -1 8 0 2 3 -5 2 -8 9 -4 14 3 5 0 9
-6 9 -7 0 -10 -5 -8 -12z"/>
<path d="M626 757 c3 -10 9 -15 12 -12 3 3 0 11 -7 18 -10 9 -11 8 -5 -6z"/>
<path d="M1200 748 c0 -11 12 -10 30 2 12 7 10 9 -8 7 -12 0 -22 -5 -22 -9z"/>
<path d="M1358 703 c7 -3 16 -2 19 1 4 3 -2 6 -13 5 -11 0 -14 -3 -6 -6z"/>
<path d="M1060 675 c0 -5 5 -17 10 -25 5 -8 10 -10 10 -5 0 6 -5 17 -10 25 -5
8 -10 11 -10 5z"/>
<path d="M1086 668 c3 -5 10 -6 15 -3 13 9 11 12 -6 12 -8 0 -12 -4 -9 -9z"/>
<path d="M1046 633 c-6 -14 -5 -15 5 -6 7 7 10 15 7 18 -3 3 -9 -2 -12 -12z"/>
<path d="M1218 533 c7 -3 16 -2 19 1 4 3 -2 6 -13 5 -11 0 -14 -3 -6 -6z"/>
<path d="M783 505 c0 -7 6 -11 14 -8 7 3 13 6 13 8 0 2 -6 5 -13 8 -8 3 -14
-1 -14 -8z"/>
<path d="M560 1140 c0 -5 4 -10 9 -10 6 0 13 5 16 10 3 6 -1 10 -9 10 -9 0
-16 -4 -16 -10z"/>
<path d="M2020 1695 c0 -8 5 -15 11 -15 5 0 8 -4 5 -9 -6 -10 32 -57 40 -49 3
3 -2 12 -10 21 -8 8 -12 17 -9 21 4 3 -3 15 -15 26 -18 17 -22 18 -22 5z"/>
<path d="M1980 1421 c0 -6 4 -13 10 -16 6 -3 7 1 4 9 -7 18 -14 21 -14 7z"/>
<path d="M511 1374 c0 -11 3 -14 6 -6 3 7 2 16 -1 19 -3 4 -6 -2 -5 -13z"/>
<path d="M2136 1362 c-3 -5 1 -9 9 -9 8 0 12 4 9 9 -3 4 -7 8 -9 8 -2 0 -6 -4
-9 -8z"/>
<path d="M1400 1280 c0 -5 5 -10 10 -10 6 0 10 5 10 10 0 6 -4 10 -10 10 -5 0
-10 -4 -10 -10z"/>
<path d="M1756 1245 c2 -24 9 -56 14 -70 6 -15 8 -30 5 -35 -3 -4 2 -13 11
-20 11 -10 12 -15 3 -21 -8 -4 -4 -9 11 -14 15 -5 19 -10 11 -14 -6 -4 -9 -15
-5 -25 5 -12 10 -14 20 -5 7 6 18 8 24 4 5 -3 10 -1 10 4 0 6 -7 11 -15 11 -8
0 -15 9 -15 21 0 11 -4 17 -10 14 -6 -4 -10 8 -10 30 0 20 -4 34 -9 31 -4 -3
-6 7 -4 22 3 19 2 23 -5 14 -6 -10 -11 1 -16 37 -8 63 -25 76 -20 16z"/>
<path d="M1986 930 c7 -8 14 -24 17 -35 4 -19 5 -19 6 1 0 12 -7 28 -16 35
-16 12 -17 12 -7 -1z"/>
<path d="M2383 870 c0 -30 2 -43 4 -27 2 15 2 39 0 55 -2 15 -4 2 -4 -28z"/>
<path d="M1896 854 c-5 -14 -4 -15 9 -4 17 14 19 20 6 20 -5 0 -12 -7 -15 -16z"/>
<path d="M1960 776 c0 -8 4 -17 9 -20 5 -4 7 3 4 14 -6 23 -13 26 -13 6z"/>
<path d="M2381 584 c0 -11 3 -14 6 -6 3 7 2 16 -1 19 -3 4 -6 -2 -5 -13z"/>
<path d="M1946 523 c-6 -14 -5 -15 5 -6 7 7 10 15 7 18 -3 3 -9 -2 -12 -12z"/>
<path d="M1750 507 c0 -3 -9 -29 -20 -58 -13 -32 -16 -49 -9 -47 14 5 43 97
35 106 -3 3 -6 2 -6 -1z"/>
<path d="M630 457 c0 -31 -4 -47 -12 -47 -17 0 -20 -172 -4 -182 8 -6 8 -8 0
-8 -8 0 -11 -14 -9 -37 2 -22 8 -37 14 -36 16 4 14 -8 -6 -30 -10 -11 -12 -17
-5 -13 13 8 17 -10 3 -18 -4 -3 -7 -16 -7 -28 1 -13 -2 -31 -6 -41 -6 -12 -5
-17 7 -17 9 0 14 4 10 9 -3 5 -1 12 5 16 5 3 10 11 10 16 0 6 -5 7 -12 3 -7
-5 -8 -3 -4 5 5 7 15 10 23 7 8 -3 11 -2 8 3 -3 5 -1 12 4 15 5 3 7 16 5 29
-3 17 -1 16 8 -5 13 -32 27 -36 30 -10 0 9 2 23 2 30 1 7 8 17 16 22 10 6 11
10 3 10 -9 0 -10 7 -3 25 7 20 6 25 -5 25 -8 0 -15 -9 -15 -20 0 -11 -4 -20
-10 -20 -5 0 -7 17 -3 43 3 23 6 48 6 55 0 9 8 11 24 7 17 -4 23 -1 23 11 0
12 -6 15 -26 10 -17 -5 -23 -3 -19 4 3 5 13 10 21 10 8 0 12 5 9 10 -4 6 -11
8 -16 5 -5 -4 -9 -1 -9 4 0 6 7 11 16 11 8 0 13 4 9 10 -3 5 -13 7 -23 4 -10
-4 -13 -3 -6 3 11 8 11 23 -1 58 -7 20 -7 20 11 0 17 -20 17 -20 9 0 -4 11
-12 35 -17 53 -5 19 -11 32 -13 30 -2 -2 -5 -63 -6 -136 -1 -75 -6 -127 -10
-120 -6 9 -9 6 -9 -9 0 -13 -4 -23 -9 -23 -5 0 -7 -9 -4 -20 3 -11 0 -20 -6
-20 -12 0 -9 28 7 70 5 14 8 37 6 53 -1 15 0 27 4 27 10 0 2 173 -9 185 -5 5
-9 -9 -9 -38z m60 -317 c0 -5 -4 -10 -9 -10 -6 0 -13 5 -16 10 -3 6 1 10 9 10
9 0 16 -4 16 -10z m0 -30 c0 -5 -4 -10 -10 -10 -5 0 -10 5 -10 10 0 6 5 10 10
10 6 0 10 -4 10 -10z"/>
<path d="M2077 463 c3 -7 9 -10 14 -7 14 8 11 21 -5 21 -8 0 -12 -6 -9 -14z"/>
<path d="M141 424 c0 -11 3 -14 6 -6 3 7 2 16 -1 19 -3 4 -6 -2 -5 -13z"/>
<path d="M565 401 c-4 -17 -11 -29 -16 -25 -5 3 -9 1 -9 -4 0 -6 7 -12 15 -16
20 -7 19 -22 -1 -30 -12 -5 -15 -2 -10 9 3 9 2 13 -3 10 -14 -8 -9 -45 7 -45
7 0 10 5 7 10 -3 6 -2 10 3 10 13 0 6 -151 -8 -160 -9 -6 -9 -13 2 -31 15 -25
16 -55 3 -101 -8 -32 9 -39 23 -10 12 26 8 97 -7 116 -12 14 -12 16 1 11 12
-5 14 16 15 128 1 135 -8 189 -22 128z"/>
<path d="M1840 391 c0 -6 4 -13 10 -16 6 -3 7 1 4 9 -7 18 -14 21 -14 7z"/>
<path d="M2382 360 c0 -14 2 -19 5 -12 2 6 2 18 0 25 -3 6 -5 1 -5 -13z"/>
<path d="M400 361 c0 -6 4 -13 10 -16 6 -3 7 1 4 9 -7 18 -14 21 -14 7z"/>
<path d="M405 320 c-3 -5 -1 -10 4 -10 6 0 11 5 11 10 0 6 -2 10 -4 10 -3 0
-8 -4 -11 -10z"/>
<path d="M2179 288 c0 -7 -2 -23 -3 -35 -1 -12 2 -19 7 -16 5 3 13 -1 18 -8 5
-8 9 -9 9 -3 0 6 -6 17 -14 23 -8 7 -12 21 -9 31 3 11 3 20 -1 20 -3 0 -6 -6
-7 -12z"/>
<path d="M1822 260 c0 -14 2 -19 5 -12 2 6 2 18 0 25 -3 6 -5 1 -5 -13z"/>
<path d="M697 253 c-2 -4 -1 -16 2 -26 6 -16 9 -17 19 -4 10 11 9 17 -2 26 -8
7 -16 8 -19 4z"/>
<path d="M406 232 c-3 -5 1 -9 9 -9 8 0 12 4 9 9 -3 4 -7 8 -9 8 -2 0 -6 -4
-9 -8z"/>
<path d="M2231 203 c-9 -16 -12 -16 -21 -3 -5 8 -10 10 -10 4 0 -6 7 -17 15
-24 8 -7 12 -17 8 -24 -3 -6 -2 -8 2 -3 5 4 20 -3 34 -15 19 -17 22 -18 11 -4
-14 18 -13 19 3 13 15 -6 16 -4 7 14 -9 16 -15 18 -25 9 -19 -15 -29 4 -15 30
13 25 5 27 -9 3z"/>
<path d="M2186 172 c8 -18 12 -37 8 -43 -4 -7 -3 -9 4 -5 16 10 10 44 -10 63
-17 15 -17 15 -2 -15z"/>
<path d="M1801 164 c0 -11 3 -14 6 -6 3 7 2 16 -1 19 -3 4 -6 -2 -5 -13z"/>
<path d="M1822 150 c0 -14 2 -19 5 -12 2 6 2 18 0 25 -3 6 -5 1 -5 -13z"/>
<path d="M1792 120 c0 -14 2 -19 5 -12 2 6 2 18 0 25 -3 6 -5 1 -5 -13z"/>
<path d="M2226 132 c-3 -5 1 -9 9 -9 8 0 12 4 9 9 -3 4 -7 8 -9 8 -2 0 -6 -4
-9 -8z"/>
<path d="M151 104 c0 -11 3 -14 6 -6 3 7 2 16 -1 19 -3 4 -6 -2 -5 -13z"/>
<path d="M466 58 c1 -27 4 -52 7 -54 3 -3 5 12 4 33 -1 21 2 43 6 50 4 6 1 13
-6 16 -9 3 -12 -9 -11 -45z"/>
<path d="M2190 93 l-105 -4 3 -44 c2 -25 8 -45 13 -45 9 0 13 30 10 58 -2 10
3 11 16 3 11 -5 24 -6 31 -2 10 6 40 7 105 2 12 -1 17 -10 17 -31 0 -20 5 -30
15 -30 11 0 15 12 15 50 0 28 -3 49 -7 48 -5 -1 -55 -4 -113 -5z"/>
<path d="M773 76 c4 -10 7 -31 7 -47 0 -22 5 -29 20 -29 11 0 20 5 20 10 0 6
-5 10 -11 10 -5 0 -7 5 -4 10 11 18 25 11 26 -12 0 -22 1 -22 8 -3 11 26 5 35
-25 35 -14 0 -24 6 -24 14 0 8 -5 18 -12 22 -8 5 -9 2 -5 -10z"/>
<path d="M747 73 c-11 -10 -8 -73 3 -73 6 0 10 18 10 40 0 41 -2 45 -13 33z"/>
<path d="M1894 63 c0 -13 7 -19 22 -19 13 0 20 4 17 9 -3 4 -7 6 -11 3 -3 -3
-10 1 -16 10 -10 13 -12 13 -12 -3z"/>
<path d="M1781 54 c0 -11 3 -14 6 -6 3 7 2 16 -1 19 -3 4 -6 -2 -5 -13z"/>
<path d="M1266 47 c3 -10 9 -15 12 -12 3 3 0 11 -7 18 -10 9 -11 8 -5 -6z"/>
<path d="M405 40 c-3 -5 -1 -10 4 -10 6 0 11 5 11 10 0 6 -2 10 -4 10 -3 0 -8
-4 -11 -10z"/>
<path d="M1250 20 c0 -11 4 -20 9 -20 5 0 7 9 4 20 -3 11 -7 20 -9 20 -2 0 -4
-9 -4 -20z"/>
</g>
</svg>
